<svg width="151" height="62" viewBox="0 0 151 62" fill="none" xmlns="http://www.w3.org/2000/svg">
<path d="M35.165 11.936H14.5806C9.88317 11.936 6.0752 15.744 6.0752 20.4414V41.0258C6.0752 45.7232 9.88317 49.5312 14.5806 49.5312H35.165C39.8623 49.5312 43.6703 45.7232 43.6703 41.0258V20.4414C43.6703 15.744 39.8623 11.936 35.165 11.936Z" fill="url(#paint0_linear)" stroke="url(#paint1_linear)" stroke-width="0.142947"/>
<path d="M12.4365 27.5888C12.4365 25.2203 14.3564 23.3004 16.7249 23.3004H28.8755C29.665 23.3004 30.3049 23.9404 30.3049 24.7299V33.8785C30.3049 36.247 28.385 38.1669 26.0165 38.1669H13.866C13.0765 38.1669 12.4365 37.527 12.4365 36.7375V27.5888Z" fill="white"/>
<path d="M31.3054 29.0115C31.3054 28.5654 31.5137 28.1449 31.8686 27.8744L35.0135 25.4785C35.9544 24.7614 37.3092 25.4324 37.3092 26.6155V34.8518C37.3092 36.0348 35.9544 36.7058 35.0135 35.9888L31.8686 33.5929C31.5137 33.3224 31.3054 32.9019 31.3054 32.4557V29.0115Z" fill="white"/>
<path d="M64.0891 27.6841C63.3391 28.4617 62.1038 28.3541 61.1484 27.8496C60.6258 27.5414 59.9966 27.3873 59.261 27.3873C58.5448 27.3873 57.9155 27.5414 57.3735 27.8496C56.8509 28.1358 56.4056 28.543 56.0378 29.0715C55.6894 29.5778 55.4184 30.1722 55.2247 30.8548C55.0506 31.5152 54.9634 32.2086 54.9634 32.9352C54.9634 33.6617 55.0699 34.3551 55.2829 35.0157C55.4957 35.6541 55.7958 36.2155 56.183 36.6999C56.5701 37.1842 57.0348 37.5694 57.5768 37.8556C58.1188 38.1198 58.7286 38.252 59.4062 38.252C60.1418 38.252 60.7709 38.1088 61.2937 37.8226C62.1765 37.302 63.3727 37.2149 64.0494 37.9846L64.6039 38.6152C63.9265 39.4738 63.1327 40.0902 62.2228 40.4646C61.3324 40.8388 60.3838 41.0259 59.3772 41.0259C58.3125 41.0259 57.3349 40.8278 56.4443 40.4315C55.5732 40.0351 54.8182 39.4848 54.1793 38.7804C53.5405 38.0538 53.0469 37.1952 52.6984 36.2044C52.35 35.1918 52.1758 34.08 52.1758 32.8692C52.1758 31.6583 52.35 30.5464 52.6984 29.5338C53.0469 28.521 53.5309 27.6515 54.1503 26.9249C54.7891 26.1984 55.5442 25.6371 56.4153 25.2408C57.3057 24.8224 58.2931 24.6133 59.3772 24.6133C60.3838 24.6133 61.342 24.8224 62.2518 25.2408C63.1811 25.6371 63.9845 26.2535 64.6621 27.0901L64.0891 27.6841Z" fill="url(#paint2_linear)"/>
<path d="M67.345 32.8031C67.345 33.5956 67.4515 34.3331 67.6645 35.0156C67.8773 35.6761 68.1774 36.2484 68.5646 36.7329C68.9517 37.1951 69.426 37.5694 69.9874 37.8556C70.5489 38.1197 71.178 38.252 71.8748 38.252C72.5719 38.252 73.201 38.1197 73.7623 37.8556C74.3237 37.5694 74.798 37.1951 75.1852 36.7329C75.5723 36.2484 75.8724 35.6761 76.0854 35.0156C76.2983 34.3331 76.4048 33.5956 76.4048 32.8031C76.4048 32.0105 76.2983 31.284 76.0854 30.6234C75.8724 29.941 75.5723 29.3686 75.1852 28.9062C74.798 28.4219 74.3237 28.0477 73.7623 27.7835C73.201 27.4973 72.5719 27.3542 71.8748 27.3542C71.178 27.3542 70.5489 27.4973 69.9874 27.7835C69.426 28.0477 68.9517 28.4219 68.5646 28.9062C68.1774 29.3686 67.8773 29.941 67.6645 30.6234C67.4515 31.284 67.345 32.0105 67.345 32.8031ZM64.5574 32.8031C64.5574 31.6582 64.7412 30.5904 65.1092 29.5998C65.4963 28.609 66.0189 27.7395 66.6771 26.9909C67.3353 26.2424 68.1096 25.659 69.0002 25.2408C69.8906 24.8003 70.8489 24.5802 71.8748 24.5802C72.9009 24.5802 73.8591 24.8003 74.7497 25.2408C75.6401 25.659 76.4144 26.2424 77.0727 26.9909C77.7308 27.7395 78.2439 28.609 78.6117 29.5998C78.9988 30.5904 79.1925 31.6582 79.1925 32.8031C79.1925 33.9478 78.9988 35.0266 78.6117 36.0393C78.2439 37.03 77.7308 37.8996 77.0727 38.6482C76.4144 39.3747 75.6401 39.958 74.7497 40.3985C73.8591 40.8167 72.9009 41.0259 71.8748 41.0259C70.8489 41.0259 69.8906 40.8167 69.0002 40.3985C68.1096 39.958 67.3353 39.3747 66.6771 38.6482C66.0189 37.8996 65.4963 37.03 65.1092 36.0393C64.7412 35.0266 64.5574 33.9478 64.5574 32.8031Z" fill="url(#paint3_linear)"/>
<path d="M80.8394 24.9765H81.3085C82.4927 24.9765 83.4527 25.9365 83.4527 27.1207V27.3873H83.5108C83.84 26.5506 84.411 25.8792 85.224 25.3728C86.0371 24.8444 86.9759 24.5802 88.0408 24.5802C88.6989 24.5802 89.328 24.7013 89.9281 24.9434C90.5476 25.1636 91.08 25.5159 91.5252 26.0002C91.9898 26.4845 92.3576 27.1121 92.6286 27.8826C92.8997 28.631 93.0352 29.5227 93.0352 30.5574V40.6296H92.566C91.3819 40.6296 90.4218 39.6696 90.4218 38.4854V31.3831C90.4218 30.6565 90.3346 30.0401 90.1605 29.5338C89.9863 29.0054 89.754 28.587 89.4635 28.2788C89.1732 27.9486 88.8344 27.7175 88.4473 27.5854C88.0794 27.4313 87.6922 27.3542 87.2857 27.3542C86.7436 27.3542 86.2403 27.4533 85.7758 27.6514C85.3112 27.8495 84.9046 28.1687 84.5561 28.609C84.2078 29.0274 83.9367 29.5668 83.743 30.2272C83.5495 30.8877 83.4527 31.6692 83.4527 32.5718V38.4854C83.4527 39.6696 82.4927 40.6296 81.3085 40.6296H80.8394V24.9765Z" fill="url(#paint4_linear)"/>
<path d="M95.3477 24.9765H97.961V27.3873H98.0191C98.3483 26.5506 98.9193 25.8792 99.7323 25.3728C100.545 24.8444 101.484 24.5802 102.549 24.5802C103.207 24.5802 103.836 24.7013 104.437 24.9434C105.056 25.1636 105.588 25.5159 106.034 26.0002C106.498 26.4845 106.866 27.1121 107.137 27.8826C107.408 28.631 107.543 29.5227 107.543 30.5574V40.6296H107.074C105.89 40.6296 104.93 39.6696 104.93 38.4854V31.3831C104.93 30.6565 104.843 30.0401 104.669 29.5338C104.495 29.0054 104.262 28.587 103.972 28.2788C103.681 27.9486 103.343 27.7175 102.956 27.5854C102.588 27.4313 102.201 27.3542 101.794 27.3542C101.252 27.3542 100.749 27.4533 100.284 27.6514C99.8195 27.8495 99.4129 28.1687 99.0644 28.609C98.7161 29.0274 98.445 29.5668 98.2515 30.2272C98.0578 30.8877 97.961 31.6692 97.961 32.5718V38.4854C97.961 39.6696 97.001 40.6296 95.8168 40.6296H95.3477V24.9765Z" fill="url(#paint5_linear)"/>
<path d="M111.831 33.8928C111.831 34.5754 111.956 35.2028 112.208 35.7751C112.479 36.3255 112.828 36.7989 113.253 37.1952C113.679 37.5914 114.173 37.8996 114.734 38.1197C115.296 38.34 115.877 38.4501 116.477 38.4501C117.29 38.4501 117.996 38.241 118.596 37.8225C118.606 37.8155 118.616 37.8084 118.625 37.8014C119.641 37.0472 121.077 36.8235 122.032 37.6536L122.226 37.8225C120.774 39.958 118.742 41.0259 116.128 41.0259C115.044 41.0259 114.057 40.8167 113.166 40.3985C112.295 39.98 111.55 39.4077 110.93 38.6812C110.33 37.9326 109.866 37.0631 109.537 36.0723C109.208 35.0597 109.043 33.9698 109.043 32.8031C109.043 31.6362 109.217 30.5574 109.566 29.5668C109.934 28.554 110.427 27.6844 111.047 26.9578C111.685 26.2094 112.44 25.626 113.312 25.2076C114.183 24.7893 115.131 24.5802 116.157 24.5802C117.377 24.5802 118.403 24.8224 119.235 25.3068C120.087 25.7911 120.784 26.4295 121.326 27.2222C121.868 27.9926 122.255 28.8732 122.487 29.864C122.739 30.8327 122.865 31.8233 122.865 32.8361C122.865 33.4196 122.392 33.8928 121.808 33.8928H111.831ZM120.077 31.5151C120.058 30.8547 119.961 30.2492 119.787 29.6989C119.632 29.1485 119.39 28.6751 119.061 28.2788C118.732 27.8606 118.316 27.5414 117.812 27.3212C117.328 27.0789 116.757 26.9578 116.099 26.9578C115.46 26.9578 114.87 27.1011 114.328 27.3873C113.805 27.6514 113.36 28.0036 112.992 28.4439C112.624 28.8842 112.334 29.3797 112.121 29.93C111.927 30.4583 111.831 30.9868 111.831 31.5151H120.077Z" fill="url(#paint6_linear)"/>
<path d="M135.61 27.6841C134.86 28.4617 133.625 28.3541 132.669 27.8496C132.147 27.5414 131.517 27.3873 130.782 27.3873C130.065 27.3873 129.436 27.5414 128.894 27.8496C128.372 28.1358 127.926 28.543 127.559 29.0715C127.21 29.5778 126.939 30.1722 126.745 30.8548C126.571 31.5152 126.484 32.2086 126.484 32.9352C126.484 33.6617 126.591 34.3551 126.803 35.0157C127.016 35.6541 127.317 36.2155 127.704 36.6999C128.091 37.1842 128.555 37.5694 129.098 37.8556C129.64 38.1198 130.249 38.252 130.927 38.252C131.663 38.252 132.292 38.1088 132.814 37.8226C133.697 37.302 134.893 37.2149 135.57 37.9846L136.125 38.6152C135.447 39.4738 134.653 40.0902 133.744 40.4646C132.853 40.8388 131.905 41.0259 130.898 41.0259C129.833 41.0259 128.856 40.8278 127.965 40.4315C127.094 40.0351 126.339 39.4848 125.7 38.7804C125.061 38.0538 124.568 37.1952 124.219 36.2044C123.871 35.1918 123.697 34.08 123.697 32.8692C123.697 31.6583 123.871 30.5464 124.219 29.5338C124.568 28.521 125.052 27.6515 125.671 26.9249C126.31 26.1984 127.065 25.6371 127.936 25.2408C128.826 24.8224 129.814 24.6133 130.898 24.6133C131.905 24.6133 132.863 24.8224 133.773 25.2408C134.702 25.6371 135.505 26.2535 136.183 27.0901L135.61 27.6841Z" fill="url(#paint7_linear)"/>
<path d="M144.289 25.4081C144.289 26.5923 143.329 27.5523 142.145 27.5523H140.544V34.6524C140.544 35.0926 140.553 35.5329 140.573 35.9732C140.592 36.3916 140.66 36.7768 140.776 37.1291C140.911 37.4593 141.105 37.7344 141.357 37.9546C141.628 38.1527 142.015 38.2519 142.518 38.2519C142.828 38.2519 142.155 38.2323 142.629 38.2519C143.395 38.0982 144.377 38.8218 144.377 39.6025V40.4975C144.066 40.6956 143.66 40.8277 143.157 40.8937C142.673 40.9818 142.296 41.0258 142.025 41.0258C141.018 41.0258 140.234 40.8717 139.673 40.5635C139.13 40.2333 138.724 39.8149 138.453 39.3086C138.201 38.8023 138.046 38.2408 137.988 37.6244C137.95 36.986 137.93 36.3474 137.93 35.709V27.5523H137.055C135.87 27.5523 134.91 26.5923 134.91 25.4081V24.9764H137.93V20.5844H138.399C139.584 20.5844 140.544 21.5444 140.544 22.7286V24.9764H144.289V25.4081Z" fill="url(#paint8_linear)"/>
<defs>
<linearGradient id="paint0_linear" x1="43.7418" y1="11.8646" x2="6.00372" y2="11.8646" gradientUnits="userSpaceOnUse">
<stop stop-color="#8743FF"/>
<stop offset="1" stop-color="#4136F1"/>
</linearGradient>
<linearGradient id="paint1_linear" x1="43.7418" y1="11.8646" x2="6.00372" y2="11.8646" gradientUnits="userSpaceOnUse">
<stop stop-color="#8743FF"/>
<stop offset="1" stop-color="#4136F1"/>
</linearGradient>
<linearGradient id="paint2_linear" x1="144.377" y1="20.5845" x2="52.1758" y2="20.5845" gradientUnits="userSpaceOnUse">
<stop stop-color="#8743FF"/>
<stop offset="1" stop-color="#4136F1"/>
</linearGradient>
<linearGradient id="paint3_linear" x1="144.377" y1="20.5844" x2="52.1759" y2="20.5844" gradientUnits="userSpaceOnUse">
<stop stop-color="#8743FF"/>
<stop offset="1" stop-color="#4136F1"/>
</linearGradient>
<linearGradient id="paint4_linear" x1="144.377" y1="20.5844" x2="52.1757" y2="20.5844" gradientUnits="userSpaceOnUse">
<stop stop-color="#8743FF"/>
<stop offset="1" stop-color="#4136F1"/>
</linearGradient>
<linearGradient id="paint5_linear" x1="144.377" y1="20.5844" x2="52.1757" y2="20.5844" gradientUnits="userSpaceOnUse">
<stop stop-color="#8743FF"/>
<stop offset="1" stop-color="#4136F1"/>
</linearGradient>
<linearGradient id="paint6_linear" x1="144.377" y1="20.5844" x2="52.1758" y2="20.5844" gradientUnits="userSpaceOnUse">
<stop stop-color="#8743FF"/>
<stop offset="1" stop-color="#4136F1"/>
</linearGradient>
<linearGradient id="paint7_linear" x1="144.377" y1="20.5845" x2="52.1759" y2="20.5845" gradientUnits="userSpaceOnUse">
<stop stop-color="#8743FF"/>
<stop offset="1" stop-color="#4136F1"/>
</linearGradient>
<linearGradient id="paint8_linear" x1="144.377" y1="20.5844" x2="52.1757" y2="20.5844" gradientUnits="userSpaceOnUse">
<stop stop-color="#8743FF"/>
<stop offset="1" stop-color="#4136F1"/>
</linearGradient>
</defs>
</svg>
